<?xml version="1.0" standalone="no"?>
<!DOCTYPE svg PUBLIC "-//W3C//DTD SVG 20010904//EN"
 "http://www.w3.org/TR/2001/REC-SVG-20010904/DTD/svg10.dtd">
<svg version="1.0" xmlns="http://www.w3.org/2000/svg"
 width="512.000000pt" height="512.000000pt" viewBox="0 0 512.000000 512.000000"
 preserveAspectRatio="xMidYMid meet">

<g transform="translate(0.000000,512.000000) scale(0.100000,-0.100000)"
fill="#000000" stroke="none">
<path d="M1470 4290 c-12 -12 -20 -33 -20 -55 0 -30 -5 -37 -32 -48 -89 -37
-148 -129 -148 -230 0 -92 45 -160 138 -206 l42 -21 0 -140 c0 -157 -2 -160
-68 -120 -66 41 -135 15 -135 -50 0 -51 58 -96 157 -121 43 -11 46 -13 46 -45
0 -42 30 -74 69 -74 42 0 71 28 78 77 5 36 10 43 45 59 52 23 111 84 139 142
32 65 32 170 2 228 -27 50 -85 103 -140 128 l-43 19 0 109 c0 120 0 121 67 93
19 -8 48 -15 62 -15 33 0 71 37 71 69 0 53 -38 82 -137 104 -53 12 -58 16 -66
48 -16 65 -85 91 -127 49z m-20 -326 c0 -40 -4 -55 -12 -52 -26 9 -18 108 8
108 2 0 4 -25 4 -56z m201 -355 c15 -37 0 -96 -31 -124 -20 -18 -20 -18 -20
85 0 101 0 103 19 86 11 -10 25 -31 32 -47z"/>
<path d="M2746 4239 c-36 -28 -36 -80 0 -108 26 -21 36 -21 501 -21 l474 0 24
25 c14 13 25 36 25 50 0 14 -11 37 -25 50 l-24 25 -474 0 c-465 0 -475 0 -501
-21z"/>
<path d="M2432 3857 c-27 -29 -28 -67 -3 -98 l19 -24 642 0 642 0 19 24 c25
30 24 62 -2 95 l-20 26 -638 0 -638 0 -21 -23z"/>
<path d="M2453 3500 c-44 -18 -57 -86 -23 -120 20 -20 33 -20 659 -20 696 0
662 -3 677 55 9 35 -4 63 -36 80 -25 13 -118 15 -642 14 -337 0 -623 -4 -635
-9z"/>
<path d="M3477 2390 c-143 -4 -180 -8 -187 -20 -6 -9 -10 -289 -10 -706 0
-580 2 -693 14 -710 13 -18 30 -19 276 -22 236 -3 264 -1 281 14 18 16 19 45
19 720 l0 703 -22 15 c-24 17 -25 17 -371 6z"/>
</g>
</svg>
